<mxfile host="app.diagrams.net" modified="2022-06-16T11:55:40.550Z" agent="5.0 (Windows NT 10.0; Win64; x64) AppleWebKit/537.36 (KHTML, like Gecko) Chrome/101.0.0.0 Safari/537.36" etag="9J498h_a7BwqbjOYRPKY" version="20.0.1" type="github">
  <diagram id="uG6HtOsC9IxRIHhdQnI7" name="第 1 页">
    <mxGraphModel dx="1038" dy="615" grid="1" gridSize="10" guides="1" tooltips="1" connect="1" arrows="1" fold="1" page="1" pageScale="1" pageWidth="827" pageHeight="1169" math="0" shadow="0">
      <root>
        <mxCell id="0" />
        <mxCell id="1" parent="0" />
        <mxCell id="iVna7ILbOfS7X9qmxqkN-1" value="Throwable" style="rounded=1;whiteSpace=wrap;html=1;strokeWidth=2;fontSize=14;fillColor=#dae8fc;strokeColor=#6c8ebf;" vertex="1" parent="1">
          <mxGeometry x="410" y="100" width="120" height="60" as="geometry" />
        </mxCell>
        <mxCell id="iVna7ILbOfS7X9qmxqkN-8" style="edgeStyle=orthogonalEdgeStyle;rounded=0;orthogonalLoop=1;jettySize=auto;html=1;entryX=0.5;entryY=1;entryDx=0;entryDy=0;exitX=0.5;exitY=0;exitDx=0;exitDy=0;" edge="1" parent="1" source="iVna7ILbOfS7X9qmxqkN-2" target="iVna7ILbOfS7X9qmxqkN-1">
          <mxGeometry relative="1" as="geometry" />
        </mxCell>
        <mxCell id="iVna7ILbOfS7X9qmxqkN-2" value="Error" style="rounded=1;whiteSpace=wrap;html=1;strokeWidth=2;fontSize=14;fillColor=#dae8fc;strokeColor=#6c8ebf;" vertex="1" parent="1">
          <mxGeometry x="160" y="230" width="120" height="60" as="geometry" />
        </mxCell>
        <mxCell id="iVna7ILbOfS7X9qmxqkN-9" style="edgeStyle=orthogonalEdgeStyle;rounded=0;orthogonalLoop=1;jettySize=auto;html=1;entryX=0.5;entryY=1;entryDx=0;entryDy=0;exitX=0.5;exitY=0;exitDx=0;exitDy=0;" edge="1" parent="1" source="iVna7ILbOfS7X9qmxqkN-3" target="iVna7ILbOfS7X9qmxqkN-1">
          <mxGeometry relative="1" as="geometry" />
        </mxCell>
        <mxCell id="iVna7ILbOfS7X9qmxqkN-3" value="Exception" style="rounded=1;whiteSpace=wrap;html=1;strokeWidth=2;fontSize=14;fillColor=#dae8fc;strokeColor=#6c8ebf;" vertex="1" parent="1">
          <mxGeometry x="630" y="230" width="120" height="60" as="geometry" />
        </mxCell>
        <mxCell id="iVna7ILbOfS7X9qmxqkN-11" style="edgeStyle=orthogonalEdgeStyle;rounded=0;orthogonalLoop=1;jettySize=auto;html=1;entryX=0.5;entryY=1;entryDx=0;entryDy=0;" edge="1" parent="1" source="iVna7ILbOfS7X9qmxqkN-4" target="iVna7ILbOfS7X9qmxqkN-3">
          <mxGeometry relative="1" as="geometry" />
        </mxCell>
        <mxCell id="iVna7ILbOfS7X9qmxqkN-4" value="classNotFound&lt;br&gt;Exception" style="rounded=1;whiteSpace=wrap;html=1;strokeWidth=2;fontSize=14;fillColor=#dae8fc;strokeColor=#6c8ebf;" vertex="1" parent="1">
          <mxGeometry x="484" y="350" width="146" height="60" as="geometry" />
        </mxCell>
        <mxCell id="iVna7ILbOfS7X9qmxqkN-13" style="edgeStyle=orthogonalEdgeStyle;rounded=0;orthogonalLoop=1;jettySize=auto;html=1;entryX=0.5;entryY=1;entryDx=0;entryDy=0;" edge="1" parent="1" source="iVna7ILbOfS7X9qmxqkN-5" target="iVna7ILbOfS7X9qmxqkN-3">
          <mxGeometry relative="1" as="geometry">
            <Array as="points">
              <mxPoint x="970" y="320" />
              <mxPoint x="690" y="320" />
            </Array>
          </mxGeometry>
        </mxCell>
        <mxCell id="iVna7ILbOfS7X9qmxqkN-5" value="RuntimeException" style="rounded=1;whiteSpace=wrap;html=1;strokeWidth=2;fontSize=14;fillColor=#dae8fc;strokeColor=#6c8ebf;" vertex="1" parent="1">
          <mxGeometry x="900" y="350" width="120" height="60" as="geometry" />
        </mxCell>
        <mxCell id="iVna7ILbOfS7X9qmxqkN-10" style="edgeStyle=orthogonalEdgeStyle;rounded=0;orthogonalLoop=1;jettySize=auto;html=1;entryX=0.5;entryY=1;entryDx=0;entryDy=0;" edge="1" parent="1" source="iVna7ILbOfS7X9qmxqkN-6" target="iVna7ILbOfS7X9qmxqkN-3">
          <mxGeometry relative="1" as="geometry">
            <Array as="points">
              <mxPoint x="390" y="320" />
              <mxPoint x="690" y="320" />
            </Array>
          </mxGeometry>
        </mxCell>
        <mxCell id="iVna7ILbOfS7X9qmxqkN-6" value="IOException" style="rounded=1;whiteSpace=wrap;html=1;strokeWidth=2;fontSize=14;fillColor=#dae8fc;strokeColor=#6c8ebf;" vertex="1" parent="1">
          <mxGeometry x="330" y="350" width="120" height="60" as="geometry" />
        </mxCell>
        <mxCell id="iVna7ILbOfS7X9qmxqkN-12" style="edgeStyle=orthogonalEdgeStyle;rounded=0;orthogonalLoop=1;jettySize=auto;html=1;entryX=0.5;entryY=1;entryDx=0;entryDy=0;" edge="1" parent="1" source="iVna7ILbOfS7X9qmxqkN-7" target="iVna7ILbOfS7X9qmxqkN-3">
          <mxGeometry relative="1" as="geometry" />
        </mxCell>
        <mxCell id="iVna7ILbOfS7X9qmxqkN-7" value="CloneNot&lt;br&gt;SupportedEXception" style="rounded=1;whiteSpace=wrap;html=1;strokeWidth=2;fontSize=14;fillColor=#dae8fc;strokeColor=#6c8ebf;" vertex="1" parent="1">
          <mxGeometry x="660" y="350" width="140" height="60" as="geometry" />
        </mxCell>
        <mxCell id="iVna7ILbOfS7X9qmxqkN-16" value="jvm虚拟机自动处理" style="text;html=1;strokeColor=#82b366;fillColor=#d5e8d4;align=center;verticalAlign=middle;whiteSpace=wrap;rounded=0;fontSize=14;" vertex="1" parent="1">
          <mxGeometry x="930" y="440" width="90" height="30" as="geometry" />
        </mxCell>
        <mxCell id="iVna7ILbOfS7X9qmxqkN-17" value="非运行异常应该抛出或者捕获" style="text;html=1;strokeColor=#6c8ebf;fillColor=#dae8fc;align=center;verticalAlign=middle;whiteSpace=wrap;rounded=0;fontSize=14;" vertex="1" parent="1">
          <mxGeometry x="497" y="480" width="120" height="30" as="geometry" />
        </mxCell>
      </root>
    </mxGraphModel>
  </diagram>
</mxfile>
